<svg width="32" height="32" viewBox="0 0 32 32" fill="none" xmlns="http://www.w3.org/2000/svg">
<g id="OpenAnotherPage">
<rect id="iconContainer" width="32" height="32" rx="12" fill="#6194FA"/>
<path id="OpenAnotherIcon" d="M11.4375 9.25C10.8573 9.25 10.3009 9.48047 9.8907 9.8907C9.48047 10.3009 9.25 10.8573 9.25 11.4375V20.8125C9.25 21.3927 9.48047 21.9491 9.8907 22.3593C10.3009 22.7695 10.8573 23 11.4375 23H20.8125C21.3927 23 21.9491 22.7695 22.3593 22.3593C22.7695 21.9491 23 21.3927 23 20.8125V18C23 17.8342 23.0658 17.6753 23.1831 17.5581C23.3003 17.4408 23.4592 17.375 23.625 17.375C23.7908 17.375 23.9497 17.4408 24.0669 17.5581C24.1842 17.6753 24.25 17.8342 24.25 18V20.8125C24.25 21.7242 23.8878 22.5985 23.2432 23.2432C22.5985 23.8878 21.7242 24.25 20.8125 24.25H11.4375C10.5258 24.25 9.65148 23.8878 9.00682 23.2432C8.36216 22.5985 8 21.7242 8 20.8125V11.4375C8 10.5258 8.36216 9.65148 9.00682 9.00682C9.65148 8.36216 10.5258 8 11.4375 8H14.25C14.4158 8 14.5747 8.06585 14.6919 8.18306C14.8092 8.30027 14.875 8.45924 14.875 8.625C14.875 8.79076 14.8092 8.94973 14.6919 9.06694C14.5747 9.18415 14.4158 9.25 14.25 9.25H11.4375ZM17.375 8.625C17.375 8.45924 17.4408 8.30027 17.5581 8.18306C17.6753 8.06585 17.8342 8 18 8H23.625C23.7908 8 23.9497 8.06585 24.0669 8.18306C24.1842 8.30027 24.25 8.45924 24.25 8.625V14.25C24.25 14.4158 24.1842 14.5747 24.0669 14.6919C23.9497 14.8092 23.7908 14.875 23.625 14.875C23.4592 14.875 23.3003 14.8092 23.1831 14.6919C23.0658 14.5747 23 14.4158 23 14.25V10.1337L18.4419 14.6919C18.324 14.8057 18.1661 14.8687 18.0022 14.8673C17.8384 14.8659 17.6816 14.8001 17.5657 14.6843C17.4499 14.5684 17.3841 14.4116 17.3827 14.2478C17.3813 14.0839 17.4443 13.926 17.5581 13.8081L22.1163 9.25H18C17.8342 9.25 17.6753 9.18415 17.5581 9.06694C17.4408 8.94973 17.375 8.79076 17.375 8.625Z" fill="#FAFAFA"/>
</g>
</svg>
